HIERARCHY
ROOT Hips
{
	OFFSET 0.00000 0.00000 0.00000
	CHANNELS 6 Xposition Yposition Zposition Zrotation Yrotation Xrotation 
	JOINT LHipJoint
	{
		OFFSET 0 0 0
		CHANNELS 3 Zrotation Yrotation Xrotation
		JOINT LeftHip
		{
			OFFSET 1.57358 -1.76629 0.73362
			CHANNELS 3 Zrotation Yrotation Xrotation
			JOINT LeftKnee
			{
				OFFSET 2.40600 -6.61045 0.00000
				CHANNELS 3 Zrotation Yrotation Xrotation
				JOINT LeftAnkle
				{
					OFFSET 2.66168 -7.31291 0.00000
					CHANNELS 3 Zrotation Yrotation Xrotation
					JOINT LeftToe
					{
						OFFSET 0.20870 -0.57341 2.12506
						CHANNELS 3 Zrotation Yrotation Xrotation
						End Site
						{
							OFFSET 0.00000 -0.00000 1.10557
						}
					}
				}
			}
		}
	}
	JOINT RHipJoint
	{
		OFFSET 0 0 0
		CHANNELS 3 Zrotation Yrotation Xrotation
		JOINT RightHip
		{
			OFFSET -1.49299 -1.76629 0.73362
			CHANNELS 3 Zrotation Yrotation Xrotation
			JOINT RightKnee
			{
				OFFSET -2.43663 -6.69460 0.00000
				CHANNELS 3 Zrotation Yrotation Xrotation
				JOINT RightAnkle
				{
					OFFSET -2.62959 -7.22474 0.00000
					CHANNELS 3 Zrotation Yrotation Xrotation
					JOINT RightToe
					{
						OFFSET -0.25784 -0.70841 2.21862
						CHANNELS 3 Zrotation Yrotation Xrotation
						End Site
						{
							OFFSET -0.00000 -0.00000 1.16452
						}
					}
				}
			}
		}
	}
	JOINT lowerback
	{
		OFFSET 0 0 0
		CHANNELS 3 Zrotation Yrotation Xrotation
		JOINT Chest
		{
			OFFSET -0.00034 2.12399 -0.25450
			CHANNELS 3 Zrotation Yrotation Xrotation
			JOINT Chest2
			{
				OFFSET 0.05594 2.14379 -0.03318
				CHANNELS 3 Zrotation Yrotation Xrotation
				JOINT lowerneck
				{
					OFFSET 0 0 0
					CHANNELS 3 Zrotation Yrotation Xrotation
					JOINT Neck
					{
						OFFSET -0.09835 1.62725 0.24211
						CHANNELS 3 Zrotation Yrotation Xrotation
						JOINT Head
						{
							OFFSET 0.10849 1.66041 -0.22648
							CHANNELS 3 Zrotation Yrotation Xrotation
							End Site
							{
								OFFSET 0.04385 1.68267 -0.10541
							}
						}
					}
				}
				JOINT LeftCollar
				{
					OFFSET 0 0 0
					CHANNELS 3 Zrotation Yrotation Xrotation
					JOINT LeftShoulder
					{
						OFFSET 3.29108 0.79398 -0.68179
CHANNELS 3 Zrotation Xrotation Yrotation
						JOINT LeftElbow
						{
OFFSET 0 -5.153100 -0.000000
CHANNELS 3 Zrotation Xrotation Yrotation
							JOINT LeftWrist
							{
OFFSET 0 -3.751380 -0.000000
CHANNELS 3 Zrotation Xrotation Yrotation
								JOINT lhand
								{
									OFFSET 0 0 0
CHANNELS 3 Zrotation Xrotation Yrotation
									JOINT LFingers
									{
OFFSET 0 -0.529170 0.000000
CHANNELS 3 Zrotation Xrotation Yrotation
										End Site
										{
OFFSET 0 -0.426630 0.000000
										}
									}
								}
								JOINT LThumb
								{
OFFSET 0 0.000000 0.000000
CHANNELS 3 Zrotation Xrotation Yrotation
									End Site
									{
OFFSET 0 -0.433150 0.433150
									}
								}
							}
						}
					}
				}
				JOINT RightCollar
				{
					OFFSET 0 0 0
					CHANNELS 3 Zrotation Yrotation Xrotation
					JOINT RightShoulder
					{
						OFFSET -3.07414 1.06285 -0.44338
CHANNELS 3 Zrotation Xrotation Yrotation
						JOINT RightElbow
						{
OFFSET 0 -5.296130 0.000000
CHANNELS 3 Zrotation Xrotation Yrotation
							JOINT RightWrist
							{
OFFSET 0 -3.761440 -0.000000
CHANNELS 3 Zrotation Xrotation Yrotation
								JOINT rhand
								{
									OFFSET 0 0 0
CHANNELS 3 Zrotation Xrotation Yrotation
									JOINT RFingers
									{
OFFSET 0 -0.747320 0.000000
CHANNELS 3 Zrotation Xrotation Yrotation
										End Site
										{
OFFSET 0 -0.602510 0.000000
										}
									}
								}
								JOINT RThumb
								{
OFFSET 0 0.000000 0.000000
CHANNELS 3 Zrotation Xrotation Yrotation
									End Site
									{
OFFSET 0 -0.611710 0.611710
									}
								}
							}
						}
					}
				}
			}
		}
	}
}
MOTION
Frames: 8
Frame Time: 0.008333333333333333
1.100900 17.830100 -17.049400 -0.408700 -1.817300 5.013700 0.000000 0.000000 0.000000 -19.820300 -5.992100 -7.896100 1.130100 6.752100 18.982900 0.438700 1.211600 -13.010000 0.001600 0.255100 0.701000 0.000000 0.000000 0.000000 21.093700 9.019300 -6.724500 -1.130500 -6.753200 18.986300 -0.198300 -6.184500 -12.878600 -0.044100 -1.355800 3.728300 -1.128700 -0.654800 5.490000 2.269200 -0.878600 0.356900 3.042100 -0.412900 -2.658300 -8.422000 -3.744900 -18.745400 5.313900 -3.818800 14.716000 2.674700 -1.773200 7.893100 -0.000000 -0.000000 0.000000 0.272800 -1.465700 -22.033600 14.492300 -23.434100 3.021100 19.462800 16.054600 -24.419500 0.000000 0.000000 0.000000 -7.125000 0.000000 0.000000 -10.720400 55.371400 2.752500 -0.000000 -0.000000 0.000000 -4.175900 1.524000 16.620500 -17.591700 -27.631200 -4.358200 -11.516500 2.854600 -14.091000 0.000000 0.000000 0.000000 7.125000 0.000000 -0.000000 10.862800 15.779700 7.639800
1.101754 17.825442 -17.049788 -0.405440 -1.806975 4.986685 0.000000 0.000000 0.000000 -19.832177 -6.008713 -8.000822 1.153855 6.819948 19.183029 0.442970 1.215326 -13.071482 0.000746 0.166991 0.458796 0.000000 0.000000 0.000000 21.110468 8.889737 -6.655565 -1.113887 -6.704915 18.844083 -0.182464 -6.255919 -12.687554 -0.017163 -0.788640 2.167872 -1.121015 -0.641137 5.499859 2.253208 -0.860435 0.368234 3.019976 -0.404206 -2.653487 -8.446376 -3.786742 -18.738413 5.361564 -3.878652 14.705132 2.687121 -1.798352 7.894264 0.000000 0.000000 0.000000 0.257740 -1.474394 -22.166812 14.467769 -23.399477 3.011396 19.844892 15.806108 -24.620017 0.000000 0.000000 0.000000 -7.125000 0.000000 0.000000 -10.414773 55.651409 2.743262 0.000000 0.000000 0.000000 -4.148186 1.487902 16.607691 -17.673987 -27.737708 -4.396471 -11.305814 2.879674 -13.759988 0.000000 0.000000 0.000000 7.125000 0.000000 0.000000 11.013323 16.124064 7.665728
1.101668 17.823382 -17.048850 -0.407373 -1.739071 4.990339 0.000000 0.000000 0.000000 -19.828748 -6.035990 -8.053877 1.161474 6.841766 19.247442 0.444366 1.179266 -13.074280 0.000224 0.048268 0.132599 0.000000 0.000000 0.000000 21.129170 8.781669 -6.659793 -1.108934 -6.690613 18.801884 -0.173977 -6.316894 -12.607468 -0.005808 -0.471083 1.294531 -1.120181 -0.652672 5.508336 2.254623 -0.875480 0.348457 3.022497 -0.411205 -2.677740 -8.467491 -3.822893 -18.751707 5.371763 -3.924800 14.759580 2.688269 -1.820630 7.918803 0.000000 0.000000 0.000000 0.214719 -1.469053 -22.107060 14.454290 -23.380382 3.006058 19.853655 15.840652 -24.733998 0.000000 0.000000 0.000000 -7.125000 0.000000 0.000000 -10.457884 55.768294 2.785249 0.000000 0.000000 0.000000 -4.161143 1.472748 16.676665 -17.755943 -27.843497 -4.434687 -11.072251 2.905909 -13.397645 0.000000 0.000000 0.000000 7.125000 0.000000 0.000000 11.181695 16.500312 7.694088
1.101762 17.822932 -17.046619 -0.381910 -1.650191 4.998284 0.000000 0.000000 0.000000 -19.854411 -6.100507 -8.046451 1.164895 6.851559 19.276382 0.447394 1.133611 -13.096108 0.000000 -0.015921 -0.043690 0.000000 0.000000 0.000000 21.110011 8.661978 -6.687982 -1.108011 -6.687932 18.793961 -0.171162 -6.327499 -12.570328 -0.002538 -0.321535 0.883454 -1.143434 -0.673159 5.504020 2.253975 -0.904036 0.330589 3.037231 -0.424820 -2.691692 -8.469132 -3.854470 -18.789227 5.347588 -3.961454 14.820671 2.675677 -1.840397 7.947839 0.000000 0.000000 0.000000 0.158109 -1.478026 -21.949721 14.450120 -23.374480 3.004395 19.769988 15.904039 -24.445652 0.000000 0.000000 0.000000 -7.125000 0.000000 0.000000 -10.417846 55.459082 2.698201 0.000000 0.000000 0.000000 -4.188887 1.454035 16.779636 -17.825859 -27.933603 -4.467389 -10.890762 2.920511 -13.127958 0.000000 0.000000 0.000000 7.125000 0.000000 0.000000 11.312927 16.780378 7.718235
1.102742 17.823126 -17.043979 -0.327482 -1.566771 4.993149 0.000000 0.000000 0.000000 -19.916764 -6.206464 -7.989377 1.171336 6.869872 19.330442 0.453395 1.099234 -13.165416 0.000158 0.033152 0.091204 0.000000 0.000000 0.000000 21.049662 8.521842 -6.708929 -1.106631 -6.683784 18.781809 -0.171784 -6.278898 -12.530252 -0.001726 -0.264847 0.727677 -1.183867 -0.691451 5.494745 2.242889 -0.931198 0.328740 3.050518 -0.438004 -2.686256 -8.450231 -3.878227 -18.829236 5.309590 -3.988458 14.830259 2.656009 -1.855416 7.958654 0.000000 0.000000 0.000000 0.102850 -1.510467 -21.778621 14.454808 -23.381171 3.006231 19.758044 15.833810 -23.713085 0.000000 0.000000 0.000000 -7.125000 0.000000 0.000000 -10.106705 54.714513 2.430529 0.000000 0.000000 0.000000 -4.210500 1.426245 16.876589 -17.878831 -28.001782 -4.492261 -10.815886 2.915682 -12.972002 0.000000 0.000000 0.000000 7.125000 0.000000 0.000000 11.368899 16.940130 7.717634
1.104527 17.822583 -17.045298 -0.344328 -1.497914 4.975062 0.000000 0.000000 0.000000 -19.906905 -6.291080 -7.958946 1.176770 6.885165 19.375778 0.454093 1.080292 -13.166270 0.001322 0.223965 0.615280 0.000000 0.000000 0.000000 21.061927 8.427678 -6.732761 -1.108339 -6.688830 18.796636 -0.170930 -6.253047 -12.488565 -0.001183 -0.219434 0.602772 -1.148934 -0.706589 5.560032 2.244287 -0.948897 0.303200 3.035147 -0.446155 -2.748670 -8.457838 -3.871784 -18.746095 5.350113 -3.988147 14.683073 2.670836 -1.851845 7.896318 0.000000 0.000000 0.000000 0.075913 -1.519084 -21.688726 14.474060 -23.408263 3.013838 19.694155 15.655262 -23.334331 0.000000 0.000000 0.000000 -7.125000 0.000000 0.000000 -10.013007 54.317517 2.310437 0.000000 0.000000 0.000000 -4.207550 1.445032 16.927436 -17.927039 -28.063653 -4.514851 -10.888858 2.891927 -12.627328 0.000000 0.000000 0.000000 7.125000 0.000000 0.000000 11.329774 17.279138 7.604217
1.104011 17.821513 -17.048657 -0.348084 -1.464378 4.978746 0.000000 0.000000 0.000000 -19.898625 -6.318142 -8.006197 1.181283 6.897893 19.413286 0.453213 1.042933 -13.137261 0.002816 0.338478 0.929990 0.000000 0.000000 0.000000 21.058933 8.421456 -6.773235 -1.112810 -6.701834 18.834945 -0.171655 -6.265084 -12.513641 -0.001692 -0.260714 0.716239 -1.156887 -0.693640 5.612886 2.246013 -0.931867 0.282856 3.041482 -0.436744 -2.800165 -8.540497 -3.874747 -18.685646 5.453123 -3.991520 14.584365 2.718551 -1.848143 7.857332 0.000000 0.000000 0.000000 0.071274 -1.508363 -21.802474 14.523109 -23.477519 3.033417 19.330721 15.506709 -23.929395 0.000000 0.000000 0.000000 -7.125000 0.000000 0.000000 -10.643242 54.848755 2.601446 0.000000 0.000000 0.000000 -4.212757 1.393569 16.907837 -17.914996 -28.048171 -4.509223 -10.979918 2.874882 -12.453014 0.000000 0.000000 0.000000 7.125000 0.000000 0.000000 11.272758 17.447587 7.521979
1.102688 17.819741 -17.050777 -0.359421 -1.402744 4.983315 0.000000 0.000000 0.000000 -19.872789 -6.327453 -8.058766 1.186889 6.913674 19.459888 0.452700 0.966272 -13.096534 0.004064 0.410159 1.127018 0.000000 0.000000 0.000000 21.072721 8.421142 -6.780507 -1.115477 -6.709546 18.857737 -0.171883 -6.293150 -12.546972 -0.003085 -0.349042 0.958996 -1.142314 -0.687827 5.626172 2.234039 -0.923640 0.298390 3.020260 -0.433153 -2.792484 -8.569618 -3.897678 -18.747481 5.515220 -4.021470 14.588930 2.739943 -1.856961 7.873599 0.000000 0.000000 0.000000 0.097868 -1.555793 -21.778907 14.595888 -23.580068 3.062489 18.225632 15.730555 -24.908856 0.000000 0.000000 0.000000 -7.125000 0.000000 0.000000 -12.240707 55.608770 3.241599 0.000000 0.000000 0.000000 -4.180194 1.234041 16.806789 -17.856893 -27.973477 -4.481972 -11.047370 2.913302 -12.481850 0.000000 0.000000 0.000000 7.125000 0.000000 0.000000 11.225409 17.414891 7.497185
